<svg aria-hidden="true" style="width:0;height:0;position:absolute;overflow:hidden" xmlns="http://www.w3.org/2000/svg"><defs><symbol id="logo" viewBox="0 0 36 32"><path d="M36.121 9.329v13.342c0 2.869-.972 5.146-2.748 6.708-1.779 1.564-4.378 2.422-7.654 2.422H10.561c-3.276 0-5.875-.858-7.654-2.424C1.13 27.813.159 25.532.159 22.655V9.33c0-2.869.972-5.147 2.748-6.708C4.686 1.058 7.285.2 10.561.2h15.176c3.276 0 5.875.858 7.652 2.422 1.774 1.562 2.742 3.839 2.733 6.708zM28.85 19.397l.001-.003.001-.003c.14-.317.139-.684.021-.998l-.002-.005-.002-.005c-.16-.335-.459-.576-.807-.712l-.002-.001-.002-.001a1.657 1.657 0 0 0-.565-.102H8.822c-.794 0-1.478.581-1.478 1.313s.684 1.313 1.478 1.313h15.076l-2.949 2.593a1.22 1.22 0 0 0 0 1.867c.296.26.669.38 1.039.38s.743-.12 1.039-.38l5.505-4.84c.14-.123.24-.264.318-.418zM8.254 14.312l.002.001.002.001c.192.067.368.102.565.102h18.653c.811 0 1.496-.58 1.496-1.313s-.684-1.313-1.478-1.313H12.416l2.933-2.593a1.22 1.22 0 0 0 0-1.867c-.57-.501-1.507-.501-2.077 0l-5.505 4.84c-.14.123-.239.264-.317.418-.162.32-.162.694-.001 1.014.161.335.458.575.806.711z"/></symbol><symbol id="add" viewBox="0 0 34 32"><path d="M15.97 14.667V9.334h2.904v5.333h5.807v2.667h-5.807v5.333H15.97v-5.333h-5.807v-2.667h5.807zm1.452 14.666c-8.018 0-14.519-5.97-14.519-13.333s6.5-13.333 14.519-13.333c8.018 0 14.519 5.97 14.519 13.333s-6.5 13.333-14.519 13.333zm0-2.666c6.415 0 11.615-4.776 11.615-10.667s-5.2-10.667-11.615-10.667S5.807 10.109 5.807 16s5.2 10.667 11.615 10.667z"/></symbol><symbol id="home" viewBox="0 0 32 32"><path d="M17.333 25.333h8V13.304L16 6.045l-9.333 7.259v12.029h8v-8h2.667v8zM28 26.666c0 .736-.597 1.333-1.333 1.333H5.334a1.333 1.333 0 0 1-1.333-1.333V12.652c0-.411.19-.8.515-1.052l10.667-8.296a1.334 1.334 0 0 1 1.637 0L27.487 11.6c.325.253.515.641.515 1.052v14.014z"/></symbol><symbol id="profile" viewBox="0 0 32 32"><path d="M16 2.667c7.364 0 13.333 5.97 13.333 13.333S23.363 29.333 16 29.333c-7.364 0-13.333-5.97-13.333-13.333S8.637 2.667 16 2.667zm.213 18.666A9.31 9.31 0 0 0 9.35 24.34 10.621 10.621 0 0 0 16 26.666c2.626 0 5.03-.949 6.889-2.523a9.308 9.308 0 0 0-6.676-2.811zm-.213-16C10.109 5.333 5.333 10.109 5.333 16c0 2.414.802 4.641 2.154 6.429a11.969 11.969 0 0 1 8.726-3.762c3.313 0 6.311 1.342 8.483 3.512A10.618 10.618 0 0 0 26.667 16c0-5.891-4.776-10.667-10.667-10.667zm0 1.334a5.333 5.333 0 1 1 0 10.667 5.333 5.333 0 0 1 0-10.667zm0 2.666a2.667 2.667 0 1 0 0 5.334 2.667 2.667 0 0 0 0-5.334z"/></symbol><symbol id="message" viewBox="0 0 32 32"><path d="M6.021 22.4H28.8V3.2H3.2v21.416L6.021 22.4zm1.106 3.2L0 31.2V1.6A1.6 1.6 0 0 1 1.6 0h28.8A1.6 1.6 0 0 1 32 1.6V24a1.6 1.6 0 0 1-1.6 1.6H7.127z"/></symbol><symbol id="notification" viewBox="0 0 32 32"><path d="M29.091 26.182H0v-2.909h1.455V13.137C1.455 5.882 7.316 0 14.546 0s13.091 5.881 13.091 13.137v10.136h1.455v2.909zM4.364 23.273h20.364V13.137c0-5.649-4.559-10.227-10.182-10.227S4.364 7.489 4.364 13.137v10.136zm6.545 4.363h7.273a3.636 3.636 0 0 1-7.272 0z"/></symbol></defs></svg>