<svg aria-hidden="true" style="position: absolute; width: 0; height: 0; overflow: hidden;" version="1.1" xmlns="http://www.w3.org/2000/svg" xmlns:xlink="http://www.w3.org/1999/xlink">
<defs>
<symbol id="icon-logo" viewBox="0 0 36 32">
<path d="M36.121 9.329v13.342c0 2.869-0.972 5.146-2.748 6.708-1.779 1.564-4.378 2.422-7.654 2.422h-15.158c-3.276 0-5.875-0.858-7.654-2.424-1.777-1.564-2.748-3.845-2.748-6.722v-13.325c0-2.869 0.972-5.147 2.748-6.708 1.779-1.564 4.378-2.422 7.654-2.422h15.176c3.276 0 5.875 0.858 7.652 2.422 1.774 1.562 2.742 3.839 2.733 6.708zM28.85 19.397l0.001-0.003 0.001-0.003c0.14-0.317 0.139-0.684 0.021-0.998l-0.002-0.005-0.002-0.005c-0.16-0.335-0.459-0.576-0.807-0.712l-0.002-0.001-0.002-0.001c-0.192-0.067-0.368-0.102-0.565-0.102h-18.671c-0.794 0-1.478 0.581-1.478 1.313s0.684 1.313 1.478 1.313h15.076l-2.949 2.593c-0.579 0.509-0.579 1.358 0 1.867 0.296 0.26 0.669 0.38 1.039 0.38s0.743-0.12 1.039-0.38l5.505-4.84c0.14-0.123 0.24-0.264 0.318-0.418zM8.254 14.312l0.002 0.001 0.002 0.001c0.192 0.067 0.368 0.102 0.565 0.102h18.653c0.811 0 1.496-0.58 1.496-1.313s-0.684-1.313-1.478-1.313h-15.078l2.933-2.593c0.579-0.509 0.579-1.358 0-1.867-0.57-0.501-1.507-0.501-2.077 0l-5.505 4.84c-0.14 0.123-0.239 0.264-0.317 0.418-0.162 0.32-0.162 0.694-0.001 1.014 0.161 0.335 0.458 0.575 0.806 0.711z"></path>
</symbol>
</defs>
</svg>
