<svg aria-hidden="true" style="position: absolute; width: 0; height: 0; overflow: hidden;" version="1.1" xmlns="http://www.w3.org/2000/svg" xmlns:xlink="http://www.w3.org/1999/xlink">
<defs>
<symbol id="logo" viewBox="0 0 36 32">
<path d="M36.121 9.329v13.342c0 2.869-0.972 5.146-2.748 6.708-1.779 1.564-4.378 2.422-7.654 2.422h-15.158c-3.276 0-5.875-0.858-7.654-2.424-1.777-1.564-2.748-3.845-2.748-6.722v-13.325c0-2.869 0.972-5.147 2.748-6.708 1.779-1.564 4.378-2.422 7.654-2.422h15.176c3.276 0 5.875 0.858 7.652 2.422 1.774 1.562 2.742 3.839 2.733 6.708zM28.85 19.397l0.001-0.003 0.001-0.003c0.14-0.317 0.139-0.684 0.021-0.998l-0.002-0.005-0.002-0.005c-0.16-0.335-0.459-0.576-0.807-0.712l-0.002-0.001-0.002-0.001c-0.192-0.067-0.368-0.102-0.565-0.102h-18.671c-0.794 0-1.478 0.581-1.478 1.313s0.684 1.313 1.478 1.313h15.076l-2.949 2.593c-0.579 0.509-0.579 1.358 0 1.867 0.296 0.26 0.669 0.38 1.039 0.38s0.743-0.12 1.039-0.38l5.505-4.84c0.14-0.123 0.24-0.264 0.318-0.418zM8.254 14.312l0.002 0.001 0.002 0.001c0.192 0.067 0.368 0.102 0.565 0.102h18.653c0.811 0 1.496-0.58 1.496-1.313s-0.684-1.313-1.478-1.313h-15.078l2.933-2.593c0.579-0.509 0.579-1.358 0-1.867-0.57-0.501-1.507-0.501-2.077 0l-5.505 4.84c-0.14 0.123-0.239 0.264-0.317 0.418-0.162 0.32-0.162 0.694-0.001 1.014 0.161 0.335 0.458 0.575 0.806 0.711z"></path>
</symbol>
<symbol id="add" viewBox="0 0 34 32">
<path d="M15.97 14.667v-5.333h2.904v5.333h5.807v2.667h-5.807v5.333h-2.904v-5.333h-5.807v-2.667h5.807zM17.422 29.333c-8.018 0-14.519-5.97-14.519-13.333s6.5-13.333 14.519-13.333c8.018 0 14.519 5.97 14.519 13.333s-6.5 13.333-14.519 13.333zM17.422 26.667c6.415 0 11.615-4.776 11.615-10.667s-5.2-10.667-11.615-10.667c-6.415 0-11.615 4.776-11.615 10.667s5.2 10.667 11.615 10.667z"></path>
</symbol>
<symbol id="home" viewBox="0 0 32 32">
<path d="M17.333 25.333h8v-12.029l-9.333-7.259-9.333 7.259v12.029h8v-8h2.667v8zM28 26.666c0 0.736-0.597 1.333-1.333 1.333h-21.333c-0.736 0-1.333-0.597-1.333-1.333v-14.014c0-0.411 0.19-0.8 0.515-1.052l10.667-8.296c0.482-0.374 1.156-0.374 1.637 0l10.667 8.296c0.325 0.253 0.515 0.641 0.515 1.052v14.014z"></path>
</symbol>
<symbol id="profile" viewBox="0 0 32 32">
<path d="M16 2.667c7.364 0 13.333 5.97 13.333 13.333s-5.97 13.333-13.333 13.333c-7.364 0-13.333-5.97-13.333-13.333s5.97-13.333 13.333-13.333zM16.213 21.333c-2.714 0-5.157 1.158-6.863 3.007 1.824 1.456 4.135 2.326 6.65 2.326 2.626 0 5.030-0.949 6.889-2.523-1.695-1.734-4.060-2.811-6.676-2.811zM16 5.333c-5.891 0-10.667 4.776-10.667 10.667 0 2.414 0.802 4.641 2.154 6.429 2.188-2.316 5.288-3.762 8.726-3.762 3.313 0 6.311 1.342 8.483 3.512 1.241-1.743 1.971-3.876 1.971-6.179 0-5.891-4.776-10.667-10.667-10.667zM16 6.667c2.945 0 5.333 2.388 5.333 5.333s-2.388 5.333-5.333 5.333c-2.945 0-5.333-2.388-5.333-5.333s2.388-5.333 5.333-5.333zM16 9.333c-1.473 0-2.667 1.194-2.667 2.667s1.194 2.667 2.667 2.667c1.473 0 2.667-1.194 2.667-2.667s-1.194-2.667-2.667-2.667z"></path>
</symbol>
<symbol id="message" viewBox="0 0 32 32">
<path d="M6.021 22.4h22.779v-19.2h-25.6v21.416l2.821-2.216zM7.127 25.6l-7.127 5.6v-29.6c0-0.884 0.716-1.6 1.6-1.6h28.8c0.884 0 1.6 0.716 1.6 1.6v22.4c0 0.884-0.716 1.6-1.6 1.6h-23.273z"></path>
</symbol>
<symbol id="notification" viewBox="0 0 32 32">
<path d="M29.091 26.182h-29.091v-2.909h1.455v-10.136c0-7.255 5.861-13.137 13.091-13.137s13.091 5.881 13.091 13.137v10.136h1.455v2.909zM4.364 23.273h20.364v-10.136c0-5.649-4.559-10.227-10.182-10.227s-10.182 4.579-10.182 10.227v10.136zM10.909 27.636h7.273c0 2.008-1.628 3.636-3.636 3.636s-3.636-1.628-3.636-3.636z"></path>
</symbol>
</defs>
</svg>
