<svg aria-hidden="true" style="position: absolute; width: 0; height: 0; overflow: hidden;" version="1.1" xmlns="http://www.w3.org/2000/svg" xmlns:xlink="http://www.w3.org/1999/xlink">
<defs>
<symbol id="add" viewBox="0 0 32 32">
<path d="M15.97 14.667v-5.333h2.904v5.333h5.807v2.667h-5.807v5.333h-2.904v-5.333h-5.807v-2.667h5.807zM17.422 29.333c-8.018 0-14.519-5.97-14.519-13.333s6.5-13.333 14.519-13.333c8.018 0 14.519 5.97 14.519 13.333s-6.5 13.333-14.519 13.333zM17.422 26.667c6.415 0 11.615-4.776 11.615-10.667s-5.2-10.667-11.615-10.667c-6.415 0-11.615 4.776-11.615 10.667s5.2 10.667 11.615 10.667z"></path>
</symbol>
<symbol id="home" viewBox="0 0 32 32">
<path d="M17.333 25.333h8v-12.029l-9.333-7.259-9.333 7.259v12.029h8v-8h2.667v8zM28 26.666c0 0.736-0.597 1.333-1.333 1.333h-21.333c-0.736 0-1.333-0.597-1.333-1.333v-14.014c0-0.411 0.19-0.8 0.515-1.052l10.667-8.296c0.482-0.374 1.156-0.374 1.637 0l10.667 8.296c0.325 0.253 0.515 0.641 0.515 1.052v14.014z"></path>
</symbol>
<symbol id="profile" viewBox="0 0 32 32">
<path d="M16 2.667c7.364 0 13.333 5.97 13.333 13.333s-5.97 13.333-13.333 13.333c-7.364 0-13.333-5.97-13.333-13.333s5.97-13.333 13.333-13.333zM16.213 21.333c-2.714 0-5.157 1.158-6.863 3.007 1.824 1.456 4.135 2.326 6.65 2.326 2.626 0 5.030-0.949 6.889-2.523-1.695-1.734-4.060-2.811-6.676-2.811zM16 5.333c-5.891 0-10.667 4.776-10.667 10.667 0 2.414 0.802 4.641 2.154 6.429 2.188-2.316 5.288-3.762 8.726-3.762 3.313 0 6.311 1.342 8.483 3.512 1.241-1.743 1.971-3.876 1.971-6.179 0-5.891-4.776-10.667-10.667-10.667zM16 6.667c2.945 0 5.333 2.388 5.333 5.333s-2.388 5.333-5.333 5.333c-2.945 0-5.333-2.388-5.333-5.333s2.388-5.333 5.333-5.333zM16 9.333c-1.473 0-2.667 1.194-2.667 2.667s1.194 2.667 2.667 2.667c1.473 0 2.667-1.194 2.667-2.667s-1.194-2.667-2.667-2.667z"></path>
</symbol>
</defs>
</svg>
